<?xml version="1.0" encoding="UTF-8"?>
<svg id="Layer_2" data-name="Layer 2" xmlns="http://www.w3.org/2000/svg" viewBox="0 0 210.81 89.14">
  <defs>
    <style>
      .cls-1 {
        fill: #1a263b;
      }

      .cls-2 {
        fill: #3dbeb3;
      }
    </style>
  </defs>
  <g id="Layer_1-2" data-name="Layer 1">
    <g>
      <path class="cls-1" d="M0,38.93L13.46,4.91h7l13.37,34.03h-8.36l-6.42-17.26c-.26-.68-.52-1.41-.78-2.19-.26-.78-.52-1.58-.78-2.41-.26-.83-.51-1.64-.75-2.43-.24-.79-.45-1.53-.61-2.21l1.46-.05c-.19.81-.41,1.6-.66,2.38s-.49,1.55-.73,2.31c-.24.76-.51,1.52-.8,2.28-.29.76-.57,1.55-.83,2.36l-6.42,17.21H0ZM6.42,32.42l2.58-6.22h15.65l2.53,6.22H6.42Z"/>
      <path class="cls-1" d="M47.59,39.42c-2.5,0-4.73-.58-6.71-1.75-1.98-1.17-3.54-2.76-4.69-4.79-1.15-2.02-1.73-4.32-1.73-6.88s.57-4.85,1.73-6.88c1.15-2.02,2.71-3.62,4.69-4.79,1.98-1.17,4.21-1.75,6.71-1.75,2.3,0,4.41.41,6.34,1.22,1.93.81,3.46,1.94,4.59,3.4l-4.23,5.06c-.45-.52-.99-1-1.6-1.46-.62-.45-1.3-.81-2.04-1.07-.75-.26-1.52-.39-2.33-.39-1.23,0-2.32.28-3.26.85-.94.57-1.67,1.35-2.19,2.36-.52,1-.78,2.16-.78,3.45s.27,2.35.8,3.35c.53,1,1.27,1.8,2.21,2.38.94.58,2.01.88,3.21.88.84,0,1.62-.11,2.33-.32.71-.21,1.37-.53,1.97-.95.6-.42,1.16-.94,1.68-1.56l4.18,5.1c-1.1,1.39-2.63,2.5-4.59,3.31-1.96.81-4.06,1.21-6.29,1.21Z"/>
      <path class="cls-1" d="M74.08,39.42c-2.5,0-4.73-.58-6.71-1.75-1.98-1.17-3.54-2.76-4.69-4.79-1.15-2.02-1.73-4.32-1.73-6.88s.57-4.85,1.73-6.88c1.15-2.02,2.71-3.62,4.69-4.79,1.98-1.17,4.21-1.75,6.71-1.75,2.3,0,4.41.41,6.34,1.22,1.93.81,3.46,1.94,4.59,3.4l-4.23,5.06c-.45-.52-.99-1-1.6-1.46-.62-.45-1.3-.81-2.04-1.07-.75-.26-1.52-.39-2.33-.39-1.23,0-2.32.28-3.26.85-.94.57-1.67,1.35-2.19,2.36-.52,1-.78,2.16-.78,3.45s.27,2.35.8,3.35c.53,1,1.27,1.8,2.21,2.38.94.58,2.01.88,3.21.88.84,0,1.62-.11,2.33-.32.71-.21,1.37-.53,1.97-.95.6-.42,1.16-.94,1.68-1.56l4.18,5.1c-1.1,1.39-2.63,2.5-4.59,3.31-1.96.81-4.06,1.21-6.29,1.21Z"/>
      <path class="cls-1" d="M93.57,8.02c-1.46,0-2.6-.35-3.43-1.05-.83-.7-1.24-1.69-1.24-2.99,0-1.17.42-2.12,1.26-2.87.84-.74,1.98-1.12,3.4-1.12s2.59.35,3.4,1.05c.81.7,1.22,1.68,1.22,2.94s-.41,2.17-1.24,2.92c-.83.75-1.95,1.12-3.38,1.12ZM89.68,38.93V13.12h7.78v25.81h-7.78Z"/>
      <path class="cls-1" d="M114.52,39.47c-2.24,0-4.22-.57-5.95-1.73-1.73-1.15-3.1-2.74-4.11-4.76-1-2.02-1.51-4.33-1.51-6.93s.5-4.9,1.51-6.93c1-2.02,2.38-3.62,4.13-4.79s3.76-1.75,6.03-1.75c1.17,0,2.28.18,3.35.53,1.07.36,2.04.84,2.92,1.46.87.62,1.59,1.32,2.14,2.11.55.79.87,1.61.97,2.45l-1.85.44V2.97h7.83v35.97h-7.24l-.44-5.88,1.56.24c-.1.81-.41,1.59-.95,2.33-.53.75-1.22,1.4-2.07,1.97-.84.57-1.81,1.02-2.89,1.36-1.09.34-2.23.51-3.43.51ZM116.51,33c1.2,0,2.24-.29,3.11-.87.88-.58,1.55-1.39,2.02-2.43.47-1.04.7-2.25.7-3.65s-.24-2.66-.7-3.69c-.47-1.04-1.14-1.85-2.02-2.43-.87-.58-1.91-.87-3.11-.87s-2.23.29-3.09.87c-.86.58-1.53,1.39-2.02,2.43-.49,1.04-.73,2.27-.73,3.69s.24,2.61.73,3.65c.49,1.04,1.16,1.85,2.02,2.43.86.58,1.89.87,3.09.87Z"/>
      <path class="cls-1" d="M148.84,39.42c-2.85,0-5.33-.57-7.44-1.73-2.11-1.15-3.74-2.72-4.91-4.71-1.17-1.99-1.75-4.27-1.75-6.83,0-1.98.32-3.79.97-5.44s1.56-3.09,2.72-4.3c1.17-1.21,2.55-2.15,4.16-2.82,1.6-.66,3.36-1,5.27-1s3.48.32,4.98.97c1.51.65,2.81,1.56,3.91,2.72,1.1,1.17,1.94,2.54,2.53,4.13.58,1.59.84,3.32.78,5.2l-.05,2.09h-20.56l-1.12-4.37h15.36l-.83.92v-.97c-.07-.81-.32-1.53-.75-2.16-.44-.63-1.01-1.13-1.73-1.48-.71-.36-1.52-.53-2.43-.53-1.26,0-2.34.25-3.23.75-.89.5-1.56,1.23-2.02,2.19-.45.96-.68,2.13-.68,3.52s.3,2.67.9,3.72c.6,1.05,1.47,1.87,2.62,2.45,1.15.58,2.52.88,4.11.88,1.1,0,2.08-.16,2.94-.49.86-.32,1.79-.87,2.79-1.65l3.65,5.15c-1,.87-2.07,1.59-3.21,2.14-1.13.55-2.29.96-3.48,1.24-1.18.28-2.36.41-3.52.41Z"/>
      <path class="cls-1" d="M165.02,38.93V13.12h7.39l.24,5.25-1.56.58c.36-1.17,1-2.23,1.92-3.18.92-.96,2.03-1.73,3.33-2.31,1.3-.58,2.66-.88,4.08-.88,1.94,0,3.58.4,4.91,1.19,1.33.79,2.33,1.98,3.01,3.55.68,1.57,1.02,3.49,1.02,5.76v15.85h-7.83v-15.21c0-1.04-.15-1.9-.44-2.58-.29-.68-.74-1.19-1.34-1.53-.6-.34-1.34-.49-2.21-.46-.68,0-1.31.11-1.9.32-.58.21-1.09.52-1.51.92-.42.41-.75.87-1,1.39-.24.52-.36,1.09-.36,1.7v15.46h-7.78Z"/>
      <path class="cls-1" d="M193.46,19.93v-6.81h17.35v6.81h-17.35ZM198.03,38.93V6.61h7.78v32.32h-7.78Z"/>
    </g>
    <g>
      <path class="cls-2" d="M33.98,77.82h6.8c2.5,0,4.53-2.03,4.53-4.53v-13.59c0-2.5-2.03-4.53-4.53-4.53h-6.8v22.66ZM31.72,55.16H13.59v22.66h18.13v-22.66ZM4.53,55.16c-2.5,0-4.53,2.03-4.53,4.53v13.59c0,2.5,2.03,4.53,4.53,4.53h6.8v-22.66h-6.8ZM17.56,63.09c0-.94.76-1.7,1.7-1.7s1.7.76,1.7,1.7-.76,1.7-1.7,1.7-1.7-.76-1.7-1.7ZM26.05,61.39c.94,0,1.7.76,1.7,1.7s-.76,1.7-1.7,1.7-1.7-.76-1.7-1.7.76-1.7,1.7-1.7ZM17.56,69.89c0-.94.76-1.7,1.7-1.7s1.7.76,1.7,1.7-.76,1.7-1.7,1.7-1.7-.76-1.7-1.7ZM26.05,68.19c.94,0,1.7.76,1.7,1.7s-.76,1.7-1.7,1.7-1.7-.76-1.7-1.7.76-1.7,1.7-1.7Z"/>
      <path class="cls-2" d="M11.33,77.82v6.8c0,2.5,2.03,4.53,4.53,4.53h13.59c2.5,0,4.53-2.03,4.53-4.53v-6.8H11.33ZM33.98,77.82v-22.66H11.33v22.66h22.66ZM33.98,48.36c0-2.5-2.03-4.53-4.53-4.53h-13.59c-2.5,0-4.53,2.03-4.53,4.53v6.8h22.66v-6.8Z"/>
    </g>
    <g>
      <path class="cls-2" d="M57.05,88.48v-46.45h11.28v46.45h-11.28ZM61.43,70.36l.07-10.09h30.33v10.09h-30.39ZM85.86,88.48v-46.45h11.28v46.45h-11.28Z"/>
      <path class="cls-2" d="M124.41,89.14c-3.89,0-7.28-.78-10.15-2.36-2.88-1.57-5.11-3.72-6.7-6.44-1.59-2.72-2.39-5.83-2.39-9.32,0-2.7.44-5.18,1.33-7.43.88-2.26,2.12-4.21,3.72-5.87,1.59-1.66,3.48-2.94,5.67-3.85,2.19-.91,4.59-1.36,7.2-1.36s4.75.44,6.8,1.33c2.06.89,3.84,2.12,5.34,3.72,1.5,1.59,2.65,3.47,3.45,5.64.8,2.17,1.15,4.53,1.06,7.1l-.07,2.85h-28.07l-1.53-5.97h20.97l-1.13,1.26v-1.33c-.09-1.1-.43-2.09-1.03-2.95s-1.38-1.54-2.36-2.02c-.97-.49-2.08-.73-3.32-.73-1.72,0-3.2.34-4.41,1.03-1.22.69-2.13,1.68-2.75,2.99-.62,1.31-.93,2.91-.93,4.81s.41,3.64,1.23,5.08c.82,1.44,2.01,2.56,3.58,3.35,1.57.8,3.44,1.19,5.61,1.19,1.5,0,2.84-.22,4.01-.66,1.17-.44,2.44-1.19,3.82-2.26l4.98,7.03c-1.37,1.19-2.83,2.17-4.38,2.92-1.55.75-3.13,1.32-4.74,1.69-1.62.37-3.22.56-4.81.56Z"/>
      <path class="cls-2" d="M146.51,88.48v-35.24h10.09l.46,11.48-1.99-2.19c.53-1.9,1.4-3.61,2.62-5.11,1.22-1.5,2.64-2.7,4.28-3.58,1.64-.88,3.38-1.33,5.24-1.33.8,0,1.54.07,2.22.2s1.32.29,1.89.46l-2.92,11.75c-.49-.31-1.14-.56-1.96-.76-.82-.2-1.67-.3-2.55-.3-.97,0-1.88.17-2.72.5-.84.33-1.55.81-2.12,1.43-.58.62-1.03,1.35-1.36,2.19-.33.84-.5,1.79-.5,2.85v17.65h-10.68Z"/>
      <path class="cls-2" d="M191.83,89.14c-3.67,0-6.93-.8-9.79-2.39s-5.11-3.76-6.77-6.5c-1.66-2.74-2.49-5.88-2.49-9.42s.83-6.68,2.49-9.42c1.66-2.74,3.92-4.91,6.77-6.5s6.11-2.39,9.79-2.39,6.93.8,9.79,2.39,5.1,3.76,6.74,6.5c1.64,2.74,2.46,5.88,2.46,9.42s-.82,6.68-2.46,9.42c-1.64,2.74-3.88,4.91-6.74,6.5s-6.12,2.39-9.79,2.39ZM191.83,79.99c1.59,0,3.01-.4,4.25-1.19,1.24-.8,2.21-1.88,2.92-3.25.71-1.37,1.04-2.94,1-4.71.04-1.77-.29-3.35-1-4.74-.71-1.39-1.68-2.49-2.92-3.29-1.24-.8-2.65-1.19-4.25-1.19s-3.02.4-4.28,1.19c-1.26.8-2.25,1.89-2.95,3.29-.71,1.39-1.04,2.98-1,4.74-.04,1.77.29,3.34,1,4.71.71,1.37,1.69,2.46,2.95,3.25s2.69,1.19,4.28,1.19Z"/>
    </g>
  </g>
</svg>